<svg xmlns="http://www.w3.org/2000/svg" xmlns:xlink="http://www.w3.org/1999/xlink" width="1004" height="500" viewBox="0 0 1004 500">
  <defs>
    <linearGradient id="linear-gradient" x2="0.948" y2="0.953" gradientUnits="objectBoundingBox">
      <stop offset="0" stop-color="#6cffe3"/>
      <stop offset="0.281" stop-color="#a0e2ff"/>
      <stop offset="0.719" stop-color="#9cbcfd"/>
      <stop offset="1" stop-color="#f7b7ff" stop-opacity="0.98"/>
    </linearGradient>
  </defs>
  <path id="Gradient_Path" data-name="Gradient Path" d="M4,480V20A16.019,16.019,0,0,1,20,4H984a16.019,16.019,0,0,1,16,16V480a16.019,16.019,0,0,1-16,16H20A16.019,16.019,0,0,1,4,480M20,0A20.023,20.023,0,0,0,0,20V480a20.023,20.023,0,0,0,20,20H984a20.023,20.023,0,0,0,20-20V20A20.023,20.023,0,0,0,984,0Z" fill="url(#linear-gradient)"/>
</svg>
